<mxfile host="65bd71144e">
    <diagram id="8cUCoGUbgpFQDd_JFMRz" name="Page-1">
        <mxGraphModel dx="680" dy="474" grid="1" gridSize="10" guides="1" tooltips="1" connect="1" arrows="1" fold="1" page="1" pageScale="1" pageWidth="850" pageHeight="1100" math="0" shadow="0">
            <root>
                <mxCell id="0"/>
                <mxCell id="1" parent="0"/>
                <mxCell id="2" value="Contract" style="text;html=1;strokeColor=default;fillColor=none;align=center;verticalAlign=middle;whiteSpace=wrap;rounded=0;" vertex="1" parent="1">
                    <mxGeometry x="330" y="160" width="60" height="30" as="geometry"/>
                </mxCell>
                <mxCell id="3" value="Author" style="text;html=1;strokeColor=default;fillColor=none;align=center;verticalAlign=middle;whiteSpace=wrap;rounded=0;" vertex="1" parent="1">
                    <mxGeometry x="180" y="120" width="60" height="30" as="geometry"/>
                </mxCell>
                <mxCell id="4" value="Book" style="text;html=1;strokeColor=default;fillColor=none;align=center;verticalAlign=middle;whiteSpace=wrap;rounded=0;" vertex="1" parent="1">
                    <mxGeometry x="480" y="120" width="60" height="30" as="geometry"/>
                </mxCell>
                <mxCell id="5" value="author&lt;br&gt;book" style="text;html=1;strokeColor=none;fillColor=none;align=center;verticalAlign=middle;whiteSpace=wrap;rounded=0;" vertex="1" parent="1">
                    <mxGeometry x="330" y="220" width="60" height="30" as="geometry"/>
                </mxCell>
                <mxCell id="6" value="contract()&lt;br&gt;book()" style="text;html=1;strokeColor=none;fillColor=none;align=center;verticalAlign=middle;whiteSpace=wrap;rounded=0;" vertex="1" parent="1">
                    <mxGeometry x="170" y="160" width="60" height="30" as="geometry"/>
                </mxCell>
                <mxCell id="7" value="author()&lt;br&gt;contract()" style="text;html=1;strokeColor=none;fillColor=none;align=center;verticalAlign=middle;whiteSpace=wrap;rounded=0;" vertex="1" parent="1">
                    <mxGeometry x="480" y="170" width="60" height="30" as="geometry"/>
                </mxCell>
            </root>
        </mxGraphModel>
    </diagram>
</mxfile>